<?xml version="1.0" encoding="utf-8"?>
<!-- Svg Vector Icons : http://www.onlinewebfonts.com/icon -->
<!DOCTYPE svg PUBLIC "-//W3C//DTD SVG 1.1//EN" "http://www.w3.org/Graphics/SVG/1.1/DTD/svg11.dtd">
<svg version="1.1" xmlns="http://www.w3.org/2000/svg" xmlns:xlink="http://www.w3.org/1999/xlink" x="0px" y="0px" viewBox="0 0 1000 1000" enable-background="new 0 0 1000 1000" xml:space="preserve">
<metadata> Svg Vector Icons : http://www.onlinewebfonts.com/icon </metadata>
<g><path d="M924,746.3H76.1c-36.4,0-66.1-29.6-66.1-66.1V123.7c0-36.4,29.6-66.1,66.1-66.1H924c36.4,0,66,29.6,66,66.1v556.5C990,716.6,960.4,746.3,924,746.3z M76.1,97.1c-14.7,0-26.6,11.9-26.6,26.6v556.5c0,14.7,11.9,26.6,26.6,26.6H924c14.7,0,26.6-11.9,26.6-26.6V123.7c0-14.7-11.9-26.6-26.6-26.6H76.1z"/><path d="M449.8,729.5h98.6v194.7h-98.6V729.5L449.8,729.5z"/><path d="M678,942.3H324.6v-21.2c0-32.4,26.3-58.7,58.7-58.7h236c32.4,0,58.7,26.3,58.7,58.7V942.3z"/><path d="M32.3,583.1h933v39.4h-933V583.1L32.3,583.1z"/><path d="M473.5,666.7c0,15.1,12.2,27.4,27.4,27.4c15.1,0,27.4-12.2,27.4-27.4c0-15.1-12.2-27.4-27.4-27.4C485.7,639.3,473.5,651.5,473.5,666.7L473.5,666.7L473.5,666.7z"/></g>
</svg>