<svg width="11" height="12" viewBox="0 0 11 12" fill="none" xmlns="http://www.w3.org/2000/svg">
<path d="M10.4998 5.9559H8.7651V0.750017C8.7651 0.660811 8.70798 0.580362 8.62042 0.546215C8.53281 0.512046 8.432 0.530973 8.365 0.594017L7.70104 1.2189L7.03712 0.594039C6.9456 0.507899 6.79719 0.507899 6.70564 0.594039L6.04171 1.21892L5.37784 0.594039C5.28632 0.507899 5.13791 0.507899 5.04636 0.594039L4.38242 1.21892L3.71846 0.594039C3.62694 0.507899 3.47853 0.507899 3.38701 0.594039L2.72307 1.21892L2.05918 0.594039C1.96766 0.507899 1.81925 0.507899 1.7277 0.594039L1.06377 1.21892L0.399852 0.594039C0.308891 0.508428 0.161774 0.507987 0.0700161 0.592826C0.0218286 0.637406 -0.00153867 0.696811 7.85134e-05 0.755818V10.6765C7.85134e-05 11.309 0.546782 11.8235 1.21878 11.8235H9.5151C9.51515 11.8235 9.51517 11.8235 9.51522 11.8235C9.51529 11.8235 9.51536 11.8235 9.51543 11.8235C10.1874 11.8235 10.7341 11.309 10.7341 10.6765V6.17647C10.7341 6.05464 10.6292 5.9559 10.4998 5.9559ZM1.21878 11.3824C0.805227 11.3824 0.468805 11.0657 0.468805 10.6765V1.28285L0.89804 1.68683C0.989563 1.77297 1.13797 1.77297 1.22952 1.68683L1.89345 1.06195L2.55739 1.68683C2.64892 1.77297 2.79732 1.77297 2.88887 1.68683L3.55281 1.06195L4.21677 1.68683C4.30829 1.77297 4.4567 1.77297 4.54822 1.68683L5.21216 1.06195L5.8761 1.68683C5.96762 1.77297 6.11603 1.77297 6.20757 1.68683L6.87151 1.06195L7.53545 1.68683C7.627 1.77297 7.7754 1.77297 7.8669 1.68683L8.29649 1.28254V6.17647C8.29649 6.17848 8.29675 6.18044 8.29682 6.18245V10.6765C8.29682 10.9426 8.39385 11.1876 8.55597 11.3824H1.21878ZM10.2654 10.6765C10.2654 11.0657 9.92893 11.3824 9.5154 11.3824C9.10187 11.3824 8.76543 11.0657 8.76543 10.6765V6.39706H10.2654V10.6765V10.6765Z" fill="#0077C8"/>
<path d="M4.38254 4.03357C4.14992 4.03357 3.96069 3.88106 3.96069 3.69362C3.96069 3.50617 4.14995 3.35365 4.38254 3.35365C4.61515 3.35365 4.80439 3.50617 4.80439 3.69362C4.80439 3.81545 4.90931 3.91421 5.03876 3.91421C5.1682 3.91421 5.27313 3.81545 5.27313 3.69362C5.27313 3.33404 4.9946 3.03064 4.61691 2.94016V2.79073C4.61691 2.6689 4.51198 2.57014 4.38254 2.57014C4.25309 2.57014 4.14816 2.6689 4.14816 2.79073V2.94016C3.77045 3.03064 3.49194 3.33406 3.49194 3.69362C3.49194 4.12432 3.89148 4.47473 4.38254 4.47473C4.61515 4.47473 4.80439 4.62724 4.80439 4.8147C4.80439 5.00215 4.61515 5.15464 4.38254 5.15464C4.14992 5.15464 3.96069 5.00213 3.96069 4.8147C3.96069 4.69287 3.85576 4.59411 3.72632 4.59411C3.59687 4.59411 3.49194 4.69287 3.49194 4.8147C3.49194 5.17428 3.77047 5.47767 4.14816 5.56816V5.74816C4.14816 5.86999 4.25309 5.96875 4.38254 5.96875C4.51198 5.96875 4.61691 5.86999 4.61691 5.74816V5.56816C4.99463 5.47767 5.27313 5.17428 5.27313 4.8147C5.27313 4.384 4.8736 4.03357 4.38254 4.03357Z" fill="#0077C8"/>
<path d="M6.73731 4.0336H6.28052C6.15107 4.0336 6.04614 4.13236 6.04614 4.25419C6.04614 4.37602 6.15107 4.47478 6.28052 4.47478H6.73731C6.86675 4.47478 6.97168 4.37602 6.97168 4.25419C6.97168 4.13236 6.86675 4.0336 6.73731 4.0336Z" fill="#0077C8"/>
<path d="M2.48462 4.0336H2.02783C1.89839 4.0336 1.79346 4.13236 1.79346 4.25419C1.79346 4.37602 1.89839 4.47478 2.02783 4.47478H2.48462C2.61407 4.47478 2.71899 4.37602 2.71899 4.25419C2.71899 4.13236 2.61407 4.0336 2.48462 4.0336Z" fill="#0077C8"/>
<path d="M6.85584 6.48551H3.14282C3.01338 6.48551 2.90845 6.58427 2.90845 6.7061C2.90845 6.82793 3.01338 6.92669 3.14282 6.92669H6.85584C6.98528 6.92669 7.09021 6.82793 7.09021 6.7061C7.09019 6.58427 6.98528 6.48551 6.85584 6.48551Z" fill="#0077C8"/>
<path d="M2.07488 6.55014C2.03129 6.50912 1.97082 6.48551 1.90918 6.48551C1.84754 6.48551 1.78707 6.50912 1.74348 6.55014C1.69988 6.59117 1.6748 6.64809 1.6748 6.7061C1.6748 6.76412 1.69988 6.82103 1.74348 6.86206C1.78707 6.90309 1.84754 6.92669 1.90918 6.92669C1.97082 6.92669 2.03129 6.90309 2.07488 6.86206C2.11848 6.82103 2.14355 6.76412 2.14355 6.7061C2.14355 6.64809 2.11848 6.59117 2.07488 6.55014Z" fill="#0077C8"/>
<path d="M6.85584 7.94128H3.14282C3.01338 7.94128 2.90845 8.04004 2.90845 8.16187C2.90845 8.2837 3.01338 8.38246 3.14282 8.38246H6.85584C6.98528 8.38246 7.09021 8.2837 7.09021 8.16187C7.09019 8.04004 6.98528 7.94128 6.85584 7.94128Z" fill="#0077C8"/>
<path d="M2.07488 8.00592C2.03129 7.96489 1.97082 7.94128 1.90918 7.94128C1.84754 7.94128 1.78707 7.96489 1.74348 8.00592C1.69988 8.04695 1.6748 8.10386 1.6748 8.16187C1.6748 8.21989 1.69988 8.2768 1.74348 8.31783C1.78707 8.35886 1.84754 8.38246 1.90918 8.38246C1.97082 8.38246 2.03129 8.35886 2.07488 8.31783C2.11848 8.2768 2.14355 8.21989 2.14355 8.16187C2.14355 8.10386 2.11848 8.04695 2.07488 8.00592Z" fill="#0077C8"/>
<path d="M6.85584 9.39706H3.14282C3.01338 9.39706 2.90845 9.49581 2.90845 9.61765C2.90845 9.73948 3.01338 9.83823 3.14282 9.83823H6.85584C6.98528 9.83823 7.09021 9.73948 7.09021 9.61765C7.09021 9.49581 6.98528 9.39706 6.85584 9.39706Z" fill="#0077C8"/>
<path d="M2.07488 9.46169C2.03129 9.42066 1.97082 9.39706 1.90918 9.39706C1.84754 9.39706 1.78707 9.42066 1.74348 9.46169C1.69988 9.50272 1.6748 9.55963 1.6748 9.61765C1.6748 9.67566 1.69988 9.73257 1.74348 9.7736C1.78707 9.81463 1.84754 9.83823 1.90918 9.83823C1.97082 9.83823 2.03129 9.81463 2.07488 9.7736C2.11848 9.73257 2.14355 9.67566 2.14355 9.61765C2.14355 9.55963 2.11848 9.50272 2.07488 9.46169Z" fill="#0077C8"/>
</svg>
